<?xml version="1.0" encoding="UTF-8" standalone="no"?>
<!DOCTYPE svg PUBLIC "-//W3C//DTD SVG 1.1//EN"
 "http://www.w3.org/Graphics/SVG/1.1/DTD/svg11.dtd">
<!-- Generated by graphviz version 2.49.0 (20210829.0051)
 -->
<!-- Title: snakemake_dag Pages: 1 -->
<svg width="699pt" height="332pt"
 viewBox="0.00 0.00 699.00 332.00" xmlns="http://www.w3.org/2000/svg" xmlns:xlink="http://www.w3.org/1999/xlink">
<g id="graph0" class="graph" transform="scale(1 1) rotate(0) translate(4 328)">
<title>snakemake_dag</title>
<polygon fill="white" stroke="transparent" points="-4,4 -4,-328 695,-328 695,4 -4,4"/>
<!-- 0 -->
<g id="node1" class="node">
<title>0</title>
<path fill="none" stroke="#d88556" stroke-width="2" d="M323.5,-36C323.5,-36 293.5,-36 293.5,-36 287.5,-36 281.5,-30 281.5,-24 281.5,-24 281.5,-12 281.5,-12 281.5,-6 287.5,0 293.5,0 293.5,0 323.5,0 323.5,0 329.5,0 335.5,-6 335.5,-12 335.5,-12 335.5,-24 335.5,-24 335.5,-30 329.5,-36 323.5,-36"/>
<text text-anchor="middle" x="308.5" y="-15.5" font-family="sans" font-size="10.00">all</text>
</g>
<!-- 1 -->
<g id="node2" class="node">
<title>1</title>
<path fill="none" stroke="#5682d8" stroke-width="2" d="M326,-108C326,-108 291,-108 291,-108 285,-108 279,-102 279,-96 279,-96 279,-84 279,-84 279,-78 285,-72 291,-72 291,-72 326,-72 326,-72 332,-72 338,-78 338,-84 338,-84 338,-96 338,-96 338,-102 332,-108 326,-108"/>
<text text-anchor="middle" x="308.5" y="-87.5" font-family="sans" font-size="10.00">run_ahrd</text>
</g>
<!-- 1&#45;&gt;0 -->
<g id="edge1" class="edge">
<title>1&#45;&gt;0</title>
<path fill="none" stroke="grey" stroke-width="2" d="M308.5,-71.7C308.5,-63.98 308.5,-54.71 308.5,-46.11"/>
<polygon fill="grey" stroke="grey" stroke-width="2" points="312,-46.1 308.5,-36.1 305,-46.1 312,-46.1"/>
</g>
<!-- 2 -->
<g id="node3" class="node">
<title>2</title>
<path fill="none" stroke="#56d8d8" stroke-width="2" d="M75,-180C75,-180 12,-180 12,-180 6,-180 0,-174 0,-168 0,-168 0,-156 0,-156 0,-150 6,-144 12,-144 12,-144 75,-144 75,-144 81,-144 87,-150 87,-156 87,-156 87,-168 87,-168 87,-174 81,-180 75,-180"/>
<text text-anchor="middle" x="43.5" y="-159.5" font-family="sans" font-size="10.00">download_goa</text>
</g>
<!-- 2&#45;&gt;1 -->
<g id="edge8" class="edge">
<title>2&#45;&gt;1</title>
<path fill="none" stroke="grey" stroke-width="2" d="M87.16,-148.03C91.99,-146.64 96.85,-145.28 101.5,-144 159.67,-128.03 227.45,-110.97 269.17,-100.64"/>
<polygon fill="grey" stroke="grey" stroke-width="2" points="270.07,-104.03 278.94,-98.23 268.39,-97.23 270.07,-104.03"/>
</g>
<!-- 3 -->
<g id="node4" class="node">
<title>3</title>
<path fill="none" stroke="#59d856" stroke-width="2" d="M216.5,-324C216.5,-324 124.5,-324 124.5,-324 118.5,-324 112.5,-318 112.5,-312 112.5,-312 112.5,-300 112.5,-300 112.5,-294 118.5,-288 124.5,-288 124.5,-288 216.5,-288 216.5,-288 222.5,-288 228.5,-294 228.5,-300 228.5,-300 228.5,-312 228.5,-312 228.5,-318 222.5,-324 216.5,-324"/>
<text text-anchor="middle" x="170.5" y="-303.5" font-family="sans" font-size="10.00">download_swissprot</text>
</g>
<!-- 3&#45;&gt;1 -->
<g id="edge6" class="edge">
<title>3&#45;&gt;1</title>
<path fill="none" stroke="grey" stroke-width="2" d="M154.89,-287.77C147.13,-278.03 138.55,-265.18 134.5,-252 120.02,-204.91 124.79,-178.97 159.5,-144 188.77,-114.51 235.51,-101.36 268.83,-95.54"/>
<polygon fill="grey" stroke="grey" stroke-width="2" points="269.39,-99 278.71,-93.96 268.28,-92.09 269.39,-99"/>
</g>
<!-- 5 -->
<g id="node6" class="node">
<title>5</title>
<path fill="none" stroke="#d6d856" stroke-width="2" d="M293,-252C293,-252 156,-252 156,-252 150,-252 144,-246 144,-240 144,-240 144,-228 144,-228 144,-222 150,-216 156,-216 156,-216 293,-216 293,-216 299,-216 305,-222 305,-228 305,-228 305,-240 305,-240 305,-246 299,-252 293,-252"/>
<text text-anchor="middle" x="224.5" y="-231.5" font-family="sans" font-size="10.00">make_diamond_db_swissprot</text>
</g>
<!-- 3&#45;&gt;5 -->
<g id="edge10" class="edge">
<title>3&#45;&gt;5</title>
<path fill="none" stroke="grey" stroke-width="2" d="M183.85,-287.7C190.26,-279.39 198.06,-269.28 205.11,-260.14"/>
<polygon fill="grey" stroke="grey" stroke-width="2" points="207.97,-262.16 211.31,-252.1 202.43,-257.88 207.97,-262.16"/>
</g>
<!-- 4 -->
<g id="node5" class="node">
<title>4</title>
<path fill="none" stroke="#d85656" stroke-width="2" d="M268,-180C268,-180 181,-180 181,-180 175,-180 169,-174 169,-168 169,-168 169,-156 169,-156 169,-150 175,-144 181,-144 181,-144 268,-144 268,-144 274,-144 280,-150 280,-156 280,-156 280,-168 280,-168 280,-174 274,-180 268,-180"/>
<text text-anchor="middle" x="224.5" y="-159.5" font-family="sans" font-size="10.00">diamond_swissprot</text>
</g>
<!-- 4&#45;&gt;1 -->
<g id="edge2" class="edge">
<title>4&#45;&gt;1</title>
<path fill="none" stroke="grey" stroke-width="2" d="M245.26,-143.7C255.74,-134.97 268.61,-124.24 280,-114.75"/>
<polygon fill="grey" stroke="grey" stroke-width="2" points="282.53,-117.19 287.97,-108.1 278.05,-111.82 282.53,-117.19"/>
</g>
<!-- 5&#45;&gt;4 -->
<g id="edge9" class="edge">
<title>5&#45;&gt;4</title>
<path fill="none" stroke="grey" stroke-width="2" d="M224.5,-215.7C224.5,-207.98 224.5,-198.71 224.5,-190.11"/>
<polygon fill="grey" stroke="grey" stroke-width="2" points="228,-190.1 224.5,-180.1 221,-190.1 228,-190.1"/>
</g>
<!-- 6 -->
<g id="node7" class="node">
<title>6</title>
<path fill="none" stroke="#56d882" stroke-width="2" d="M506,-252C506,-252 335,-252 335,-252 329,-252 323,-246 323,-240 323,-240 323,-228 323,-228 323,-222 329,-216 335,-216 335,-216 506,-216 506,-216 512,-216 518,-222 518,-228 518,-228 518,-240 518,-240 518,-246 512,-252 506,-252"/>
<text text-anchor="middle" x="420.5" y="-231.5" font-family="sans" font-size="10.00">extract_header_and_length_uniref90</text>
</g>
<!-- 6&#45;&gt;1 -->
<g id="edge7" class="edge">
<title>6&#45;&gt;1</title>
<path fill="none" stroke="grey" stroke-width="2" d="M373.63,-215.87C356.74,-207.49 339.02,-195.75 327.5,-180 314.42,-162.11 309.97,-137.11 308.62,-118.16"/>
<polygon fill="grey" stroke="grey" stroke-width="2" points="312.11,-117.9 308.14,-108.07 305.12,-118.22 312.11,-117.9"/>
</g>
<!-- 7 -->
<g id="node8" class="node">
<title>7</title>
<path fill="none" stroke="#56d8a9" stroke-width="2" d="M559.5,-324C559.5,-324 473.5,-324 473.5,-324 467.5,-324 461.5,-318 461.5,-312 461.5,-312 461.5,-300 461.5,-300 461.5,-294 467.5,-288 473.5,-288 473.5,-288 559.5,-288 559.5,-288 565.5,-288 571.5,-294 571.5,-300 571.5,-300 571.5,-312 571.5,-312 571.5,-318 565.5,-324 559.5,-324"/>
<text text-anchor="middle" x="516.5" y="-303.5" font-family="sans" font-size="10.00">download_uniref90</text>
</g>
<!-- 7&#45;&gt;6 -->
<g id="edge11" class="edge">
<title>7&#45;&gt;6</title>
<path fill="none" stroke="grey" stroke-width="2" d="M492.77,-287.7C480.56,-278.8 465.51,-267.82 452.32,-258.2"/>
<polygon fill="grey" stroke="grey" stroke-width="2" points="454.1,-255.17 443.96,-252.1 449.98,-260.82 454.1,-255.17"/>
</g>
<!-- 9 -->
<g id="node10" class="node">
<title>9</title>
<path fill="none" stroke="#56a9d8" stroke-width="2" d="M679,-252C679,-252 548,-252 548,-252 542,-252 536,-246 536,-240 536,-240 536,-228 536,-228 536,-222 542,-216 548,-216 548,-216 679,-216 679,-216 685,-216 691,-222 691,-228 691,-228 691,-240 691,-240 691,-246 685,-252 679,-252"/>
<text text-anchor="middle" x="613.5" y="-231.5" font-family="sans" font-size="10.00">make_diamond_db_uniref90</text>
</g>
<!-- 7&#45;&gt;9 -->
<g id="edge13" class="edge">
<title>7&#45;&gt;9</title>
<path fill="none" stroke="grey" stroke-width="2" d="M540.48,-287.7C552.81,-278.8 568.02,-267.82 581.35,-258.2"/>
<polygon fill="grey" stroke="grey" stroke-width="2" points="583.74,-260.79 589.8,-252.1 579.64,-255.12 583.74,-260.79"/>
</g>
<!-- 8 -->
<g id="node9" class="node">
<title>8</title>
<path fill="none" stroke="#afd856" stroke-width="2" d="M430,-180C430,-180 349,-180 349,-180 343,-180 337,-174 337,-168 337,-168 337,-156 337,-156 337,-150 343,-144 349,-144 349,-144 430,-144 430,-144 436,-144 442,-150 442,-156 442,-156 442,-168 442,-168 442,-174 436,-180 430,-180"/>
<text text-anchor="middle" x="389.5" y="-159.5" font-family="sans" font-size="10.00">diamond_uniref90</text>
</g>
<!-- 8&#45;&gt;1 -->
<g id="edge4" class="edge">
<title>8&#45;&gt;1</title>
<path fill="none" stroke="grey" stroke-width="2" d="M369.48,-143.7C359.37,-134.97 346.96,-124.24 335.98,-114.75"/>
<polygon fill="grey" stroke="grey" stroke-width="2" points="338.15,-111.99 328.29,-108.1 333.57,-117.29 338.15,-111.99"/>
</g>
<!-- 9&#45;&gt;8 -->
<g id="edge12" class="edge">
<title>9&#45;&gt;8</title>
<path fill="none" stroke="grey" stroke-width="2" d="M558.99,-215.97C526.69,-205.87 485.65,-193.05 452.04,-182.54"/>
<polygon fill="grey" stroke="grey" stroke-width="2" points="452.91,-179.15 442.32,-179.51 450.82,-185.83 452.91,-179.15"/>
</g>
<!-- 10 -->
<g id="node11" class="node">
<title>10</title>
<path fill="none" stroke="#d8ac56" stroke-width="2" d="M507,-180C507,-180 472,-180 472,-180 466,-180 460,-174 460,-168 460,-168 460,-156 460,-156 460,-150 466,-144 472,-144 472,-144 507,-144 507,-144 513,-144 519,-150 519,-156 519,-156 519,-168 519,-168 519,-174 513,-180 507,-180"/>
<text text-anchor="middle" x="489.5" y="-159.5" font-family="sans" font-size="10.00">get_ahrd</text>
</g>
<!-- 10&#45;&gt;1 -->
<g id="edge3" class="edge">
<title>10&#45;&gt;1</title>
<path fill="none" stroke="grey" stroke-width="2" d="M459.76,-147.84C456.64,-146.52 453.51,-145.22 450.5,-144 416.02,-130.06 376.33,-115.36 347.69,-104.98"/>
<polygon fill="grey" stroke="grey" stroke-width="2" points="348.64,-101.61 338.05,-101.5 346.27,-108.19 348.64,-101.61"/>
</g>
<!-- 11 -->
<g id="node12" class="node">
<title>11</title>
<path fill="none" stroke="#80d856" stroke-width="2" d="M629.5,-180C629.5,-180 549.5,-180 549.5,-180 543.5,-180 537.5,-174 537.5,-168 537.5,-168 537.5,-156 537.5,-156 537.5,-150 543.5,-144 549.5,-144 549.5,-144 629.5,-144 629.5,-144 635.5,-144 641.5,-150 641.5,-156 641.5,-156 641.5,-168 641.5,-168 641.5,-174 635.5,-180 629.5,-180"/>
<text text-anchor="middle" x="589.5" y="-159.5" font-family="sans" font-size="10.00">create_ahrd_input</text>
</g>
<!-- 11&#45;&gt;1 -->
<g id="edge5" class="edge">
<title>11&#45;&gt;1</title>
<path fill="none" stroke="grey" stroke-width="2" d="M537.44,-146.6C534.08,-145.71 530.74,-144.84 527.5,-144 465.08,-127.89 392.28,-110.56 348.32,-100.26"/>
<polygon fill="grey" stroke="grey" stroke-width="2" points="348.86,-96.79 338.33,-97.92 347.27,-103.6 348.86,-96.79"/>
</g>
</g>
</svg>
